<?xml version="1.0" standalone="no"?>
<!DOCTYPE svg PUBLIC "-//W3C//DTD SVG 1.1//EN" "http://www.w3.org/Graphics/SVG/1.1/DTD/svg11.dtd" >
<svg xmlns="http://www.w3.org/2000/svg" xmlns:xlink="http://www.w3.org/1999/xlink" version="1.1">
<metadata></metadata>
<defs>
<font id="medieval_pixelregular" horiz-adv-x="1024" >
<font-face units-per-em="2048" ascent="1638" descent="-410" />
<missing-glyph horiz-adv-x="512" />
<glyph horiz-adv-x="0" />
<glyph horiz-adv-x="682" />
<glyph unicode=" "  horiz-adv-x="512" />
<glyph unicode="&#x09;" horiz-adv-x="512" />
<glyph unicode="&#xa0;" horiz-adv-x="512" />
<glyph unicode="!" horiz-adv-x="896" d="M0 0v128h128v128h128v-128h128v-128h-128v-128h-128v128h-128zM256 384v384h128v384h256v-128h128v-128h-128v-128h-128v-256h-128v-128h-128z" />
<glyph unicode="&#x22;" d="M0 640v384h128v128h128v-128h128v-128h-128v-128h-128v-128h-128zM512 640v384h128v128h128v-128h128v-128h-128v-128h-128v-128h-128z" />
<glyph unicode="#" horiz-adv-x="1280" d="M0 384v128h256v256h-128v128h256v256h256v-384h128v384h256v-384h-128v-128h256v-128h-384v-256h-128v-256h-128v256h-256v128h-256zM128 0v256h128v-256h-128zM384 384h256v256h-128v-128h-128v-128zM768 128v128h256v-128h-256z" />
<glyph unicode="$" horiz-adv-x="1152" d="M0 128v256h128v-128h256v-128h384v128h-128v128h-128v-128h-128v256h-256v128h-128v256h128v128h640v128h128v-256h128v-256h-128v128h-256v128h-384v-128h128v-128h128v128h128v-256h256v-128h128v-256h-128v-128h-640v-128h-128v256h-128z" />
<glyph unicode="%" horiz-adv-x="1152" d="M0 0v256h128v128h128v128h128v128h128v128h-128v256h-128v128h256v-128h128v-128h128v128h128v128h128v-256h-128v-128h-128v-128h-128v-128h-128v-128h128v-256h128v-128h-256v128h-128v128h-128v-128h-128v-128h-128zM0 768v256h256v-256h128v-128h-256v128h-128z M640 384v128h256v-128h128v-256h-256v256h-128z" />
<glyph unicode="&#x26;" horiz-adv-x="1408" d="M0 128v384h128v128h128v128h-128v256h128v128h256v-128h-128v-256h128v-128h128v-128h128v-128h128v-128h384v-128h-128v-256h-128v128h-128v128h-128v-128h-128v-128h-384v128h-128v128h-128zM256 128h128v-128h128v128h128v256h-128v128h-256v-384zM512 768v256h128 v-256h-128zM768 512v256h128v-128h256v-128h-128v-128h-128v128h-128z" />
<glyph unicode="'" horiz-adv-x="512" d="M0 640v384h128v128h128v-128h128v-128h-128v-128h-128v-128h-128z" />
<glyph unicode="(" horiz-adv-x="640" d="M0 384v384h128v256h128v128h256v-128h-128v-256h-128v-640h-128v256h-128zM256 0v128h128v-128h-128z" />
<glyph unicode=")" horiz-adv-x="640" d="M0 0v128h128v256h128v640h128v-256h128v-384h-128v-256h-128v-128h-256zM128 1024v128h128v-128h-128z" />
<glyph unicode="*" horiz-adv-x="768" d="M0 640v128h128v128h128v128h128v-128h256v-128h-128v-128h-128v-128h-128v128h-256zM0 896v128h128v-128h-128zM128 384v128h128v-128h-128zM384 1024v128h128v-128h-128zM512 512v128h128v-128h-128z" />
<glyph unicode="+" horiz-adv-x="896" d="M0 512v128h256v256h128v128h128v-384h256v-128h-256v-256h-128v-128h-128v384h-256z" />
<glyph unicode="," horiz-adv-x="512" d="M0 128h128v128h128v-128h128v-128h-128v-128h-128v-128h-128v384z" />
<glyph unicode="-" d="M0 384v128h128v-128h-128zM128 512v256h640v-256h-640zM768 768v128h128v-128h-128z" />
<glyph unicode="." horiz-adv-x="512" d="M0 0v128h128v128h128v-128h128v-128h-128v-128h-128v128h-128z" />
<glyph unicode="/" horiz-adv-x="1152" d="M0 0v256h128v128h128v128h128v128h128v128h128v128h128v128h128v128h128v-256h-128v-128h-128v-128h-128v-128h-128v-128h-128v-128h-128v-128h-128v-128h-128z" />
<glyph unicode="0" d="M0 0v768h128v128h128v-640h128v-128h256v-128h-128v-128h-384v128h-128zM256 896v128h128v128h384v-128h128v-768h-128v-128h-128v640h-128v128h-256z" />
<glyph unicode="1" d="M0 -128h128v-128h-128v128zM128 0h128v128h128v640h-256v128h256v128h128v128h128v-1024h256v-128h-128v-128h-640v128z" />
<glyph unicode="2" d="M0 0v512h128v128h384v-128h128v384h-256v-128h-256v256h256v128h256v-128h128v-128h128v-384h-128v-128h-384v128h-128v-384h256v128h256v-128h128v-128h-384v-128h-256v128h-256zM0 1024v128h128v-128h-128z" />
<glyph unicode="3" d="M0 0h128v-128h-128v128zM0 1024v128h128v-128h-128zM128 0v256h256v-128h256v256h-128v128h-256v128h384v-128h128v-128h128v-384h-256v-128h-256v128h-256zM128 768v256h256v128h256v-128h128v-128h128v-256h-256v256h-256v-128h-256z" />
<glyph unicode="4" d="M0 384v256h128v128h128v128h128v-256h-128v-128h256v384h-128v128h128v128h128v-128h128v-384h128v-128h-128v-384h128v-128h-128v-128h-256v128h-128v128h128v256h-128v-128h-256v128h-128z" />
<glyph unicode="5" d="M0 0h128v-128h-128v128zM0 512v640h896v-128h-128v-128h-256v128h-256v-384h128v128h384v-128h128v-512h-128v-128h-128v-128h-256v128h-256v256h256v-128h256v512h-128v-128h-128v-128h-256v128h-128z" />
<glyph unicode="6" d="M0 128v768h128v128h128v128h256v-128h256v-256h-256v128h-256v-384h128v-128h-128v-128h128v-128h256v384h-256v128h384v-128h128v-384h-128v-128h-128v-128h-256v128h-256v128h-128zM768 1024v128h128v-128h-128z" />
<glyph unicode="7" d="M0 768v384h128v-128h128v128h384v-128h128v128h128v-384h-128v-128h-128v-256h-128v-256h128v-128h-128v-128h-256v128h-128v256h128v128h128v256h128v128h128v128h-384v-128h-256zM640 128v128h128v-128h-128z" />
<glyph unicode="8" d="M0 128v384h128v128h-128v256h128v128h128v128h256v-128h256v-128h128v-384h-128v-128h128v-256h-128v-128h-128v-128h-256v128h-256v128h-128zM256 256h128v-128h256v256h-256v128h-128v-256zM256 640h256v-128h128v256h-128v128h-256v-256z" />
<glyph unicode="9" d="M0 0h128v-128h-128v128zM0 512v384h128v128h128v128h384v-128h128v-128h128v-768h-128v-128h-128v-128h-256v128h-256v256h256v-128h256v384h-128v128h128v256h-256v-128h-128v-256h256v-128h-384v128h-128z" />
<glyph unicode=":" horiz-adv-x="512" d="M0 0v128h128v128h128v-128h128v-128h-128v-128h-128v128h-128zM0 640v128h128v128h128v-128h128v-128h-128v-128h-128v128h-128z" />
<glyph unicode=";" horiz-adv-x="512" d="M0 128h128v128h128v-128h128v-128h-128v-128h-128v-128h-128v384zM0 640v128h128v128h128v-128h128v-128h-128v-128h-128v128h-128z" />
<glyph unicode="&#x3c;" horiz-adv-x="768" d="M0 512v128h128v128h128v128h128v128h128v128h128v-256h-128v-128h-128v-128h-128v-256h-128v128h-128zM256 256v128h128v-128h-128zM384 128v128h128v-128h-128zM512 0v128h128v-128h-128z" />
<glyph unicode="=" d="M0 128v128h128v-128h-128zM0 640v128h128v128h640v-256h-768zM128 256v256h768v-128h-128v-128h-640zM768 896v128h128v-128h-128z" />
<glyph unicode="&#x3e;" horiz-adv-x="768" d="M0 0v256h128v128h128v128h128v256h128v-128h128v-128h-128v-128h-128v-128h-128v-128h-128v-128h-128zM0 1024v128h128v-128h-128zM128 896v128h128v-128h-128zM256 768v128h128v-128h-128z" />
<glyph unicode="?" horiz-adv-x="896" d="M0 0v128h128v128h128v-128h128v-128h-128v-128h-128v128h-128zM0 896v128h128v128h512v-128h128v-384h-128v-128h-256v128h128v384h-256v-128h-256zM256 384v128h128v-128h-128z" />
<glyph unicode="@" horiz-adv-x="1280" d="M0 256v512h128v128h128v128h640v-128h128v-128h128v-384h-128v-128h-512v128h128v256h-128v128h256v-384h128v384h-128v128h-384v-128h-128v-512h128v-128h640v-128h-768v128h-128v128h-128zM384 384v256h128v-256h-128z" />
<glyph unicode="A" horiz-adv-x="1152" d="M0 0v128h128v256h-128v384h128v128h128v128h-256v128h1024v-128h-128v-1024h-128v128h-128v384h-128v128h128v384h-128v-128h-128v-128h-128v-256h256v-128h-128v-256h-128v-128h-256zM896 0h128v-128h-128v128z" />
<glyph unicode="B" horiz-adv-x="1152" d="M0 0h128v-128h-128v128zM0 1024v128h128v-128h-128zM128 0v1024h256v128h512v-128h128v-256h-128v-256h128v-384h-128v-128h-768zM384 128h384v384h-128v-128h-256v-256zM384 512h128v128h128v128h128v256h-256v-128h-128v-384z" />
<glyph unicode="C" horiz-adv-x="1152" d="M0 256v640h128v128h128v128h512v-128h128v-256h-128v128h-128v128h-256v-128h-128v-640h128v-128h256v128h128v128h128v-256h-128v-128h-512v128h-128v128h-128zM896 0v128h128v-128h-128zM896 1024v128h128v-128h-128z" />
<glyph unicode="D" horiz-adv-x="1152" d="M0 0h128v-128h-128v128zM0 1024v128h128v-128h-128zM128 0v1024h128v128h512v-128h128v-128h128v-512h-128v-128h-128v-128h-128v-128h-512zM384 128h128v128h128v128h128v512h-128v128h-256v-896z" />
<glyph unicode="E" horiz-adv-x="1152" d="M0 256v640h128v128h128v128h512v-128h128v-128h-256v128h-256v-128h-128v-256h512v-256h-128v128h-384v-256h128v-128h384v128h256v-128h-128v-128h-640v128h-128v128h-128zM768 640v128h128v-128h-128zM896 1024v128h128v-128h-128z" />
<glyph unicode="F" horiz-adv-x="1152" d="M0 0h128v-128h-128v128zM0 1024v128h128v-128h-128zM128 0v1024h128v128h512v-128h128v-128h-256v128h-256v-384h384v-256h-128v128h-256v-384h128v-128h-384zM768 640v128h128v-128h-128zM896 1024v128h128v-128h-128z" />
<glyph unicode="G" horiz-adv-x="1152" d="M0 128v768h128v128h128v128h512v-128h128v128h128v-256h-128v-128h-128v128h-128v128h-256v-128h-128v-640h128v-128h384v256h-256v128h256v128h256v-640h-128v-128h-128v-128h-384v128h256v128h-512v128h-128zM256 -256h128v-128h-128v128z" />
<glyph unicode="H" horiz-adv-x="1280" d="M0 0v128h128v384h-128v128h128v384h-128v128h512v-128h-128v-256h384v256h-128v128h512v-128h-128v-384h128v-128h-128v-384h128v-128h-512v128h128v256h-384v-256h128v-128h-512zM384 512h384v128h-384v-128z" />
<glyph unicode="I" horiz-adv-x="1152" d="M0 128v128h256v-128h128v896h-128v-128h-256v128h128v128h768v-128h128v-128h-256v128h-128v-896h128v128h256v-128h-128v-128h-768v128h-128z" />
<glyph unicode="J" horiz-adv-x="1152" d="M0 0v256h128v-128h128v-128h256v128h128v128h128v768h-384v-256h-128v128h-128v128h128v128h768v-1024h-128v-128h-128v-128h-128v-128h-384v128h-128v128h-128zM128 256v128h128v-128h-128zM384 640v128h128v-128h-128z" />
<glyph unicode="K" horiz-adv-x="1408" d="M0 0h128v-128h-128v128zM0 1024v128h384v-640h128v128h128v128h128v256h-128v128h256v-128h256v-128h-128v-128h-128v-128h-128v-256h128v-128h256v-256h-256v128h-128v128h-128v128h-128v-128h-128v-256h-256v1024h-128zM1152 256v128h128v-128h-128z" />
<glyph unicode="L" horiz-adv-x="1152" d="M0 0h128v-128h-128v128zM0 1024v128h640v-128h-256v-896h384v128h128v128h128v-256h-128v-128h-768v1024h-128zM640 896v128h128v-128h-128z" />
<glyph unicode="M" horiz-adv-x="1664" d="M0 0v128h128v256h-128v512h128v128h128v128h256v-128h512v128h256v-128h128v-128h128v-512h-128v-256h128v-128h-256v128h-128v256h128v384h-128v128h-128v-128h-128v-640h128v-128h-512v128h128v640h-128v128h-128v-128h-128v-384h128v-256h-128v-128h-256z" />
<glyph unicode="N" horiz-adv-x="1152" d="M0 0h128v-128h-128v128zM0 1024v128h128v-128h-128zM128 0v1024h256v128h384v-128h128v-128h128v-512h-128v-256h128v-128h-256v128h-128v256h128v512h-128v128h-128v-128h-128v-896h-256z" />
<glyph unicode="O" horiz-adv-x="1152" d="M0 256v640h128v128h128v-768h128v-128h384v-128h-512v128h-128v128h-128zM256 1024v128h512v-128h128v-128h128v-640h-128v-128h-128v768h-128v128h-384zM384 512v256h128v-128h128v-256h-128v128h-128z" />
<glyph unicode="P" horiz-adv-x="1152" d="M0 0v128h128v896h128v128h640v-128h128v-256h-128v-128h-128v-128h-128v-128h-256v-256h256v-128h-640zM0 1024v128h128v-128h-128zM384 512h128v128h128v128h128v256h-384v-512z" />
<glyph unicode="Q" horiz-adv-x="1152" d="M0 384v512h128v128h128v-640h128v-128h384v-128h-128v-128h128v-128h-512v128h128v128h-128v128h-128v128h-128zM256 1024v128h512v-128h128v-128h128v-512h-128v-128h-128v640h-128v128h-384zM384 640v128h128v-128h-128zM512 512v128h128v-128h-128zM768 -128h256v-128 h-256v128z" />
<glyph unicode="R" horiz-adv-x="1408" d="M0 0v128h128v896h128v128h640v-128h128v-256h-128v-128h-128v-256h128v-128h256v-256h-256v128h-128v128h-128v128h-256v-256h256v-128h-640zM0 1024v128h128v-128h-128zM384 512h128v128h128v128h128v256h-384v-512zM1152 256v128h128v-128h-128z" />
<glyph unicode="S" horiz-adv-x="1152" d="M0 0v256h128v128h128v-128h128v-128h384v128h-128v128h-128v128h-256v128h-128v128h-128v256h128v128h640v-128h128v128h128v-256h-128v-128h-128v128h-128v128h-384v-128h128v-128h128v-128h256v-128h128v-128h128v-256h-128v-128h-640v128h-128v-128h-128z" />
<glyph unicode="T" horiz-adv-x="1280" d="M0 896v128h128v-128h-128zM128 256v512h128v128h128v128h-256v128h1024v-256h-128v128h-384v-128h-128v-128h-128v-512h128v-128h256v128h128v128h128v-256h-128v-128h-512v128h-128v128h-128z" />
<glyph unicode="U" horiz-adv-x="1280" d="M0 256v512h128v128h128v128h-128v128h384v-256h-128v-128h-128v-512h128v-128h256v128h128v896h256v-1024h-128v-128h-640v128h-128v128h-128zM1024 0v128h128v-128h-128z" />
<glyph unicode="V" horiz-adv-x="1280" d="M0 1024v128h384v-256h128v-256h128v-256h128v256h128v256h128v128h-256v128h384v-384h-128v-256h-128v-256h-128v-256h-256v256h-128v256h-128v256h-128v256h-128zM640 896v128h128v-128h-128z" />
<glyph unicode="W" horiz-adv-x="1664" d="M0 256v512h128v128h128v128h-128v128h384v-256h-128v-128h-128v-512h128v-128h128v640h128v128h128v128h-128v128h384v-256h-128v-128h-128v-512h128v-128h128v128h128v896h256v-1024h-128v-128h-512v128h-128v-128h-384v128h-128v128h-128zM1408 0v128h128v-128h-128z " />
<glyph unicode="X" horiz-adv-x="1408" d="M0 128v128h128v128h256v128h128v128h-128v128h-256v128h-128v128h128v128h128v-128h128v-128h128v-128h256v128h128v128h128v128h128v-128h128v-128h-128v-128h-256v-128h-128v-128h128v-128h256v-128h128v-128h-128v-128h-128v128h-128v128h-128v128h-256v-128h-128 v-128h-128v-128h-128v128h-128z" />
<glyph unicode="Y" horiz-adv-x="1408" d="M0 896v128h128v128h128v-128h128v-128h128v-128h128v-128h128v128h128v128h128v128h-256v128h512v-256h-128v-128h-128v-128h-128v-128h-128v-128h-128v-256h128v-128h-640v128h128v128h128v128h128v256h-128v128h-256v128h-128z" />
<glyph unicode="Z" horiz-adv-x="1280" d="M0 128v128h128v128h128v128h128v256h256v128h128v128h-384v-128h-128v-128h-128v256h-128v128h1024v-128h128v-128h-128v-128h-128v-128h-128v-256h-256v-128h-128v-128h384v128h128v128h128v-256h128v-128h-1024v128h-128z" />
<glyph unicode="[" horiz-adv-x="640" d="M0 0v1152h512v-128h-256v-896h256v-128h-512z" />
<glyph unicode="\" horiz-adv-x="1152" d="M0 896v256h128v-128h128v-128h128v-128h128v-128h128v-128h128v-128h128v-128h128v-256h-128v128h-128v128h-128v128h-128v128h-128v128h-128v128h-128v128h-128z" />
<glyph unicode="]" horiz-adv-x="640" d="M0 0v128h256v896h-256v128h512v-1152h-512z" />
<glyph unicode="^" d="M0 640v128h128v128h128v128h128v128h128v-128h128v-128h128v-128h128v-128h-256v128h-128v128h-128v-128h-128v-128h-256z" />
<glyph unicode="_" d="M0 0h1024v-128h-1024v128z" />
<glyph unicode="`" horiz-adv-x="512" d="M0 896v128h128v128h128v-128h128v-384h-128v128h-128v128h-128z" />
<glyph unicode="a" horiz-adv-x="896" d="M0 128v256h128v128h128v-128h128v256h-256v128h128v128h128v-128h128v-128h128v-640h-256v256h-128v-256h-128v128h-128zM0 512v128h128v-128h-128zM256 0h128v-128h-128v128zM640 0h128v-128h-128v128z" />
<glyph unicode="b" horiz-adv-x="896" d="M0 0h128v-128h-128v128zM0 896v128h128v128h256v-384h128v128h128v-128h128v-640h-128v-128h-128v640h-128v-640h-256v896h-128zM384 0h128v-128h-128v128z" />
<glyph unicode="c" horiz-adv-x="768" d="M0 0v640h128v128h128v128h128v-128h128v-128h-256v-640h128v-128h-256v128h-128zM384 0v128h128v128h128v-256h-256zM512 512v128h128v-128h-128z" />
<glyph unicode="d" horiz-adv-x="896" d="M0 128v640h128v128h128v-128h128v256h-256v128h512v-1152h-256v640h-128v-640h-128v128h-128zM256 0h128v-128h-128v128zM640 0h128v-128h-128v128z" />
<glyph unicode="e" horiz-adv-x="768" d="M0 0v640h128v128h128v128h128v-128h128v-128h-256v-256h128v-128h-128v-256h128v-128h-256v128h-128zM384 0v128h128v128h128v-256h-256zM384 384v128h128v-128h-128zM512 512v128h128v-128h-128z" />
<glyph unicode="f" horiz-adv-x="896" d="M0 -256h128v-128h-128v128zM0 256v128h128v512h128v128h128v-512h128v-128h-128v-512h-128v-128h-128v512h-128zM384 1024v128h256v-128h128v-128h-128v-128h-128v256h-128zM512 512v128h128v-128h-128z" />
<glyph unicode="g" horiz-adv-x="896" d="M0 0h128v-128h-128v128zM0 256v384h128v128h128v128h128v-256h-128v-512h-128v128h-128zM128 -128h256v128h-128v128h128v512h128v128h128v-896h-128v-128h-128v-128h-128v128h-128v128zM640 768v128h128v-128h-128z" />
<glyph unicode="h" d="M0 0h128v-128h-128v128zM0 1024v128h640v-128h-256v-256h128v128h128v-128h128v-128h128v-384h-128v-128h128v-128h-256v640h-128v-128h-128v-512h-256v1024h-128z" />
<glyph unicode="i" horiz-adv-x="640" d="M0 0h128v-128h-128v128zM0 640v128h256v-128h128v-512h128v-128h-384v640h-128zM128 896v128h128v128h128v-256h-256z" />
<glyph unicode="j" horiz-adv-x="768" d="M0 -128v256h128v-128h128v-128h128v768h-128v128h256v-128h128v-896h-128v-128h-256v128h-128v128h-128zM128 128v128h128v-128h-128zM384 896v128h128v128h128v-256h-256z" />
<glyph unicode="k" horiz-adv-x="1280" d="M0 0h128v-128h-128v128zM0 1024v128h384v-640h128v128h128v128h-128v128h256v-128h256v-128h-128v-128h-256v-128h128v-128h128v-128h128v-128h-256v128h-128v128h-256v-256h-256v1024h-128zM1024 128v128h128v-128h-128z" />
<glyph unicode="l" horiz-adv-x="640" d="M0 0h128v-128h-128v128zM0 1024v128h256v-128h128v-896h128v-128h-384v1024h-128z" />
<glyph unicode="m" horiz-adv-x="1536" d="M0 0h128v-128h-128v128zM0 768v128h128v-128h-128zM128 0v768h128v-128h128v128h128v128h128v-128h128v-128h128v128h128v128h128v-128h128v-128h128v-384h-128v-128h128v-128h-256v640h-128v-128h-128v-512h-256v640h-128v-128h-128v-512h-256z" />
<glyph unicode="n" d="M0 0h128v-128h-128v128zM0 768v128h128v-128h-128zM128 0v768h128v-128h128v128h128v128h128v-128h128v-128h128v-384h-128v-128h128v-128h-256v640h-128v-128h-128v-512h-256z" />
<glyph unicode="o" horiz-adv-x="768" d="M0 256v384h128v128h128v128h128v-128h128v-256h128v-384h-128v-128h-128v-128h-128v128h-128v256h-128zM256 128h128v512h-128v-512z" />
<glyph unicode="p" horiz-adv-x="896" d="M0 768v128h128v-128h-128zM128 -384v1152h128v-128h128v-512h128v-128h-128v-256h-128v-128h-128zM384 640v256h128v-128h128v-128h128v-384h-128v-128h-128v512h-128z" />
<glyph unicode="q" d="M0 256v384h128v128h128v128h128v-256h-128v-512h-128v128h-128zM256 0v128h128v512h128v128h128v-1024h128v-128h-256v128h-128v256h-128zM640 768v128h128v-128h-128zM768 -128h128v-128h-128v128z" />
<glyph unicode="r" d="M0 0h128v-128h-128v128zM0 768v128h128v-128h-128zM128 0v768h128v-128h128v128h128v128h128v-128h128v-128h128v-128h-128v-128h-128v256h-128v-128h-128v-384h128v-128h-384z" />
<glyph unicode="s" d="M0 128v128h384v-128h128v128h-128v128h-256v128h-128v128h256v128h128v128h128v-128h128v-128h256v-128h-384v128h-128v-128h128v-128h256v-128h128v-128h-256v-128h-128v-128h-128v128h-128v128h-256z" />
<glyph unicode="t" horiz-adv-x="768" d="M0 384v128h128v512h128v128h128v-512h128v-128h-128v-768h-128v128h-128v512h-128zM384 -256h128v-128h-128v128zM512 640v128h128v-128h-128z" />
<glyph unicode="u" d="M0 128v384h128v128h-128v128h256v-640h128v128h128v512h256v-768h-128v128h-128v-128h-128v-128h-128v128h-128v128h-128zM768 0h128v-128h-128v128z" />
<glyph unicode="v" horiz-adv-x="1152" d="M0 640v128h256v-128h128v-384h128v128h128v128h128v128h-128v128h384v-256h-128v-128h-128v-128h-128v-128h-128v-128h-256v128h-128v512h-128zM512 768v128h128v-128h-128z" />
<glyph unicode="w" horiz-adv-x="1408" d="M0 128v384h128v256h256v-256h-128v-384h128v128h128v512h256v-512h128v-128h128v384h-128v256h256v-256h128v-384h-128v-128h-128v-128h-128v128h-128v128h-256v-128h-128v-128h-128v128h-128v128h-128zM0 768v128h128v-128h-128zM1152 768v128h128v-128h-128z" />
<glyph unicode="x" horiz-adv-x="1152" d="M0 0h128v128h128v128h128v256h-128v128h-128v128h256v-128h256v128h128v128h256v-128h-128v-128h-128v-128h-128v-256h128v-128h128v-128h-256v128h-256v-128h-128v-128h-256v128zM0 512v128h128v-128h-128zM896 128v128h128v-128h-128z" />
<glyph unicode="y" horiz-adv-x="896" d="M0 0h128v-128h128v-128h128v-128h-256v128h-128v256zM0 256v256h128v128h-128v256h128v-128h128v-512h128v-128h128v768h128v-128h128v-896h-128v-128h-256v128h128v128h-256v128h-128v128h-128z" />
<glyph unicode="z" d="M0 128v128h128v128h128v128h256v128h-384v256h256v-128h256v-128h256v-128h-128v-128h-128v-128h-256v-128h384v-256h-256v128h-256v128h-256zM0 512v128h128v-128h-128zM768 128v128h128v-128h-128z" />
<glyph unicode="{" horiz-adv-x="640" d="M0 512v128h128v384h128v128h256v-128h-128v-384h-128v-128h128v-384h128v-128h-256v128h-128v384h-128z" />
<glyph unicode="|" horiz-adv-x="384" d="M0 -256v1408h256v-1408h-256z" />
<glyph unicode="}" horiz-adv-x="640" d="M0 0v128h128v384h128v128h-128v384h-128v128h256v-128h128v-384h128v-128h-128v-384h-128v-128h-256z" />
<glyph unicode="~" d="M0 896v128h128v128h384v-128h128v128h256v-128h-128v-128h-384v128h-128v-128h-256z" />
<glyph unicode="&#xa1;" d="M128 128v768h640v-768h-640zM256 256h384v512h-384v-512z" />
<glyph unicode="&#xa2;" d="M128 128v768h640v-768h-640zM256 256h384v512h-384v-512z" />
<glyph unicode="&#xa3;" d="M128 128v768h640v-768h-640zM256 256h384v512h-384v-512z" />
<glyph unicode="&#xa4;" d="M128 128v768h640v-768h-640zM256 256h384v512h-384v-512z" />
<glyph unicode="&#xa5;" d="M128 128v768h640v-768h-640zM256 256h384v512h-384v-512z" />
<glyph unicode="&#xa6;" d="M128 128v768h640v-768h-640zM256 256h384v512h-384v-512z" />
<glyph unicode="&#xa7;" d="M128 128v768h640v-768h-640zM256 256h384v512h-384v-512z" />
<glyph unicode="&#xa8;" d="M128 128v768h640v-768h-640zM256 256h384v512h-384v-512z" />
<glyph unicode="&#xa9;" horiz-adv-x="1152" d="M0 256v640h128v-640h-128zM128 128v128h128v-128h-128zM128 896v128h128v-128h-128zM256 0v128h512v-128h-512zM256 384v384h128v-384h-128zM256 1024v128h512v-128h-512zM384 256v128h256v-128h-256zM384 768v128h256v-128h-256zM640 384v128h128v-128h-128zM640 640 v128h128v-128h-128zM768 128v128h128v-128h-128zM768 896v128h128v-128h-128zM896 256v640h128v-640h-128z" />
<glyph unicode="&#xaa;" d="M128 128v768h640v-768h-640zM256 256h384v512h-384v-512z" />
<glyph unicode="&#xab;" d="M128 128v768h640v-768h-640zM256 256h384v512h-384v-512z" />
<glyph unicode="&#xac;" d="M128 128v768h640v-768h-640zM256 256h384v512h-384v-512z" />
<glyph unicode="&#xad;" d="M128 128v768h640v-768h-640zM256 256h384v512h-384v-512z" />
<glyph unicode="&#xae;" d="M0 128v896h256v128h512v-128h256v-896h-128v128h-256v128h-256v128h-128v256h-128v-256h128v-256h256v-128h256v-128h-128v-128h-256v128h-256v128h-128zM640 640h128v128h128v128h-256v-256z" />
<glyph unicode="&#xaf;" d="M128 128v768h640v-768h-640zM256 256h384v512h-384v-512z" />
<glyph unicode="&#xb0;" d="M0 320v704l512 128l512 -128v-704l-64 -128l-64 -64l-128 32l-192 96l-192 128l-128 128l-64 128l-48 192v-64l16 -128l32 -128l64 -128l128 -128l384 -256l-256 -128l-256 128l-192 192zM682 554l86 86h128l-214 212v-298z" />
<glyph unicode="&#xb1;" d="M128 128v768h640v-768h-640zM256 256h384v512h-384v-512z" />
<glyph unicode="&#xb2;" d="M128 128v768h640v-768h-640zM256 256h384v512h-384v-512z" />
<glyph unicode="&#xb3;" d="M128 128v768h640v-768h-640zM256 256h384v512h-384v-512z" />
<glyph unicode="&#xb4;" d="M128 128v768h640v-768h-640zM256 256h384v512h-384v-512z" />
<glyph unicode="&#xb5;" d="M128 128v768h640v-768h-640zM256 256h384v512h-384v-512z" />
<glyph unicode="&#xb6;" d="M128 128v768h640v-768h-640zM256 256h384v512h-384v-512z" />
<glyph unicode="&#xb7;" d="M128 128v768h640v-768h-640zM256 256h384v512h-384v-512z" />
<glyph unicode="&#xb8;" d="M128 128v768h640v-768h-640zM256 256h384v512h-384v-512z" />
<glyph unicode="&#xb9;" d="M128 128v768h640v-768h-640zM256 256h384v512h-384v-512z" />
<glyph unicode="&#xba;" d="M128 128v768h640v-768h-640zM256 256h384v512h-384v-512z" />
<glyph unicode="&#xbb;" d="M128 128v768h640v-768h-640zM256 256h384v512h-384v-512z" />
<glyph unicode="&#xbc;" d="M128 128v768h640v-768h-640zM256 256h384v512h-384v-512z" />
<glyph unicode="&#xbd;" d="M128 128v768h640v-768h-640zM256 256h384v512h-384v-512z" />
<glyph unicode="&#xbe;" d="M128 128v768h640v-768h-640zM256 256h384v512h-384v-512z" />
<glyph unicode="&#xbf;" d="M128 128v768h640v-768h-640zM256 256h384v512h-384v-512z" />
<glyph unicode="&#xc0;" d="M128 128v768h640v-768h-640zM256 256h384v512h-384v-512z" />
<glyph unicode="&#xc1;" d="M128 128v768h640v-768h-640zM256 256h384v512h-384v-512z" />
<glyph unicode="&#xc2;" d="M128 128v768h640v-768h-640zM256 256h384v512h-384v-512z" />
<glyph unicode="&#xc3;" d="M128 128v768h640v-768h-640zM256 256h384v512h-384v-512z" />
<glyph unicode="&#xc4;" d="M128 128v768h640v-768h-640zM256 256h384v512h-384v-512z" />
<glyph unicode="&#xc5;" d="M128 128v768h640v-768h-640zM256 256h384v512h-384v-512z" />
<glyph unicode="&#xc6;" d="M128 128v768h640v-768h-640zM256 256h384v512h-384v-512z" />
<glyph unicode="&#xc7;" d="M128 128v768h640v-768h-640zM256 256h384v512h-384v-512z" />
<glyph unicode="&#xc8;" d="M128 128v768h640v-768h-640zM256 256h384v512h-384v-512z" />
<glyph unicode="&#xc9;" d="M128 128v768h640v-768h-640zM256 256h384v512h-384v-512z" />
<glyph unicode="&#xca;" d="M128 128v768h640v-768h-640zM256 256h384v512h-384v-512z" />
<glyph unicode="&#xcb;" d="M128 128v768h640v-768h-640zM256 256h384v512h-384v-512z" />
<glyph unicode="&#xcc;" d="M128 128v768h640v-768h-640zM256 256h384v512h-384v-512z" />
<glyph unicode="&#xcd;" d="M128 128v768h640v-768h-640zM256 256h384v512h-384v-512z" />
<glyph unicode="&#xce;" d="M128 128v768h640v-768h-640zM256 256h384v512h-384v-512z" />
<glyph unicode="&#xcf;" d="M128 128v768h640v-768h-640zM256 256h384v512h-384v-512z" />
<glyph unicode="&#xd0;" d="M128 128v768h640v-768h-640zM256 256h384v512h-384v-512z" />
<glyph unicode="&#xd1;" d="M128 128v768h640v-768h-640zM256 256h384v512h-384v-512z" />
<glyph unicode="&#xd2;" d="M128 128v768h640v-768h-640zM256 256h384v512h-384v-512z" />
<glyph unicode="&#xd3;" d="M128 128v768h640v-768h-640zM256 256h384v512h-384v-512z" />
<glyph unicode="&#xd4;" d="M128 128v768h640v-768h-640zM256 256h384v512h-384v-512z" />
<glyph unicode="&#xd5;" d="M128 128v768h640v-768h-640zM256 256h384v512h-384v-512z" />
<glyph unicode="&#xd6;" d="M128 128v768h640v-768h-640zM256 256h384v512h-384v-512z" />
<glyph unicode="&#xd7;" d="M128 128v768h640v-768h-640zM256 256h384v512h-384v-512z" />
<glyph unicode="&#xd8;" d="M128 128v768h640v-768h-640zM256 256h384v512h-384v-512z" />
<glyph unicode="&#xd9;" d="M128 128v768h640v-768h-640zM256 256h384v512h-384v-512z" />
<glyph unicode="&#xda;" d="M128 128v768h640v-768h-640zM256 256h384v512h-384v-512z" />
<glyph unicode="&#xdb;" d="M128 128v768h640v-768h-640zM256 256h384v512h-384v-512z" />
<glyph unicode="&#xdc;" d="M128 128v768h640v-768h-640zM256 256h384v512h-384v-512z" />
<glyph unicode="&#xdd;" d="M128 128v768h640v-768h-640zM256 256h384v512h-384v-512z" />
<glyph unicode="&#xde;" d="M128 128v768h640v-768h-640zM256 256h384v512h-384v-512z" />
<glyph unicode="&#xdf;" d="M128 128v768h640v-768h-640zM256 256h384v512h-384v-512z" />
<glyph unicode="&#xe0;" d="M128 128v768h640v-768h-640zM256 256h384v512h-384v-512z" />
<glyph unicode="&#xe1;" d="M128 128v768h640v-768h-640zM256 256h384v512h-384v-512z" />
<glyph unicode="&#xe2;" d="M128 128v768h640v-768h-640zM256 256h384v512h-384v-512z" />
<glyph unicode="&#xe3;" d="M128 128v768h640v-768h-640zM256 256h384v512h-384v-512z" />
<glyph unicode="&#xe4;" d="M128 128v768h640v-768h-640zM256 256h384v512h-384v-512z" />
<glyph unicode="&#xe5;" d="M128 128v768h640v-768h-640zM256 256h384v512h-384v-512z" />
<glyph unicode="&#xe6;" d="M128 128v768h640v-768h-640zM256 256h384v512h-384v-512z" />
<glyph unicode="&#xe7;" d="M128 128v768h640v-768h-640zM256 256h384v512h-384v-512z" />
<glyph unicode="&#xe8;" d="M128 128v768h640v-768h-640zM256 256h384v512h-384v-512z" />
<glyph unicode="&#xe9;" d="M128 128v768h640v-768h-640zM256 256h384v512h-384v-512z" />
<glyph unicode="&#xea;" d="M128 128v768h640v-768h-640zM256 256h384v512h-384v-512z" />
<glyph unicode="&#xeb;" d="M128 128v768h640v-768h-640zM256 256h384v512h-384v-512z" />
<glyph unicode="&#xec;" d="M128 128v768h640v-768h-640zM256 256h384v512h-384v-512z" />
<glyph unicode="&#xed;" d="M128 128v768h640v-768h-640zM256 256h384v512h-384v-512z" />
<glyph unicode="&#xee;" d="M128 128v768h640v-768h-640zM256 256h384v512h-384v-512z" />
<glyph unicode="&#xef;" d="M128 128v768h640v-768h-640zM256 256h384v512h-384v-512z" />
<glyph unicode="&#xf0;" d="M128 128v768h640v-768h-640zM256 256h384v512h-384v-512z" />
<glyph unicode="&#xf1;" d="M128 128v768h640v-768h-640zM256 256h384v512h-384v-512z" />
<glyph unicode="&#xf2;" d="M128 128v768h640v-768h-640zM256 256h384v512h-384v-512z" />
<glyph unicode="&#xf3;" d="M128 128v768h640v-768h-640zM256 256h384v512h-384v-512z" />
<glyph unicode="&#xf4;" d="M128 128v768h640v-768h-640zM256 256h384v512h-384v-512z" />
<glyph unicode="&#xf5;" d="M128 128v768h640v-768h-640zM256 256h384v512h-384v-512z" />
<glyph unicode="&#xf6;" d="M128 128v768h640v-768h-640zM256 256h384v512h-384v-512z" />
<glyph unicode="&#xf7;" d="M128 128v768h640v-768h-640zM256 256h384v512h-384v-512z" />
<glyph unicode="&#xf8;" d="M128 128v768h640v-768h-640zM256 256h384v512h-384v-512z" />
<glyph unicode="&#xf9;" d="M128 128v768h640v-768h-640zM256 256h384v512h-384v-512z" />
<glyph unicode="&#xfa;" d="M128 128v768h640v-768h-640zM256 256h384v512h-384v-512z" />
<glyph unicode="&#xfb;" d="M128 128v768h640v-768h-640zM256 256h384v512h-384v-512z" />
<glyph unicode="&#xfc;" d="M128 128v768h640v-768h-640zM256 256h384v512h-384v-512z" />
<glyph unicode="&#xfd;" d="M128 128v768h640v-768h-640zM256 256h384v512h-384v-512z" />
<glyph unicode="&#xfe;" d="M128 128v768h640v-768h-640zM256 256h384v512h-384v-512z" />
<glyph unicode="&#xff;" d="M128 128v768h640v-768h-640zM256 256h384v512h-384v-512z" />
<glyph unicode="&#x152;" d="M128 128v768h640v-768h-640zM256 256h384v512h-384v-512z" />
<glyph unicode="&#x153;" d="M128 128v768h640v-768h-640zM256 256h384v512h-384v-512z" />
<glyph unicode="&#x178;" d="M128 128v768h640v-768h-640zM256 256h384v512h-384v-512z" />
<glyph unicode="&#x2c6;" d="M128 128v768h640v-768h-640zM256 256h384v512h-384v-512z" />
<glyph unicode="&#x2dc;" d="M128 128v768h640v-768h-640zM256 256h384v512h-384v-512z" />
<glyph unicode="&#x2000;" horiz-adv-x="682" />
<glyph unicode="&#x2001;" horiz-adv-x="1365" />
<glyph unicode="&#x2002;" horiz-adv-x="682" />
<glyph unicode="&#x2003;" horiz-adv-x="1365" />
<glyph unicode="&#x2004;" horiz-adv-x="455" />
<glyph unicode="&#x2005;" horiz-adv-x="341" />
<glyph unicode="&#x2006;" horiz-adv-x="227" />
<glyph unicode="&#x2007;" horiz-adv-x="227" />
<glyph unicode="&#x2008;" horiz-adv-x="170" />
<glyph unicode="&#x2009;" horiz-adv-x="273" />
<glyph unicode="&#x200a;" horiz-adv-x="75" />
<glyph unicode="&#x2010;" d="M0 384v128h128v-128h-128zM128 512v256h640v-256h-640zM768 768v128h128v-128h-128z" />
<glyph unicode="&#x2011;" d="M0 384v128h128v-128h-128zM128 512v256h640v-256h-640zM768 768v128h128v-128h-128z" />
<glyph unicode="&#x2012;" d="M0 384v128h128v-128h-128zM128 512v256h640v-256h-640zM768 768v128h128v-128h-128z" />
<glyph unicode="&#x2013;" d="M128 128v768h640v-768h-640zM256 256h384v512h-384v-512z" />
<glyph unicode="&#x2014;" d="M128 128v768h640v-768h-640zM256 256h384v512h-384v-512z" />
<glyph unicode="&#x2018;" horiz-adv-x="512" d="M0 768v128h128v128h128v128h128v-384h-128v-128h-128v128h-128z" />
<glyph unicode="&#x2019;" horiz-adv-x="512" d="M0 640v384h128v128h128v-128h128v-128h-128v-128h-128v-128h-128z" />
<glyph unicode="&#x201a;" d="M128 128v768h640v-768h-640zM256 256h384v512h-384v-512z" />
<glyph unicode="&#x201c;" d="M0 768v128h128v128h128v128h128v-384h-128v-128h-128v128h-128zM512 768v128h128v128h128v128h128v-384h-128v-128h-128v128h-128z" />
<glyph unicode="&#x201d;" d="M0 640v384h128v128h128v-128h128v-128h-128v-128h-128v-128h-128zM512 640v384h128v128h128v-128h128v-128h-128v-128h-128v-128h-128z" />
<glyph unicode="&#x201e;" d="M128 128v768h640v-768h-640zM256 256h384v512h-384v-512z" />
<glyph unicode="&#x2022;" d="M128 128v768h640v-768h-640zM256 256h384v512h-384v-512z" />
<glyph unicode="&#x2026;" d="M128 128v768h640v-768h-640zM256 256h384v512h-384v-512z" />
<glyph unicode="&#x202f;" horiz-adv-x="273" />
<glyph unicode="&#x2039;" d="M128 128v768h640v-768h-640zM256 256h384v512h-384v-512z" />
<glyph unicode="&#x203a;" d="M128 128v768h640v-768h-640zM256 256h384v512h-384v-512z" />
<glyph unicode="&#x205f;" horiz-adv-x="341" />
<glyph unicode="&#x20ac;" d="M128 128v768h640v-768h-640zM256 256h384v512h-384v-512z" />
<glyph unicode="&#x2122;" horiz-adv-x="1536" d="M0 896v256h640v-256h-128v128h-128v-512h128v-128h-384v128h128v512h-128v-128h-128zM512 128v128h128v384h-128v128h256v-128h128v-128h-128v-384h-256zM896 256v256h128v-256h-128zM1024 512v128h128v128h256v-128h-128v-384h128v-128h-256v384h-128z" />
<glyph unicode="&#x25fc;" horiz-adv-x="900" d="M0 0v900h900v-900h-900z" />
</font>
</defs>
</svg>
